<?xml version="1.0" encoding="utf-8"?>
<!-- Generator: Adobe Illustrator 23.0.4, SVG Export Plug-In . SVG Version: 6.00 Build 0)  -->
<svg version="1.1" id="Capa_1" xmlns="http://www.w3.org/2000/svg" xmlns:xlink="http://www.w3.org/1999/xlink" x="0px" y="0px"
	 viewBox="0 0 710.54 221.64" style="enable-background:new 0 0 710.54 221.64;" xml:space="preserve">
<style type="text/css">
	.st0{fill:#FFFFFF;}
	.st1{fill:#65EFBD;}
</style>
<g>
	<rect x="5.05" y="50.57" transform="matrix(0.9892 -0.1462 0.1462 0.9892 -12.3868 53.1446)" width="700.45" height="120.51"/>
	<g>
		<path class="st0" d="M267.59,156.07c-2.93-19.31-5.23-38.86-9.04-58.02c-0.38-1.89-1.93-2.9-3.56-2.83
			c-1.38-0.38-2.87-0.04-3.67,1.48c-4.45,8.49-8.33,17.32-12.43,25.98c-2.75,5.82-5.61,11.62-8.33,17.48
			c-3.73-5.14-8.52-9.46-13.33-13.69c-7.07-6.21-14.71-13.03-16.84-22.61c-0.33-1.46-1.3-2.31-2.42-2.62c-1.77-3-7.17-1.76-6.35,2.2
			c1.96,9.51,3.86,19.02,5.63,28.57c1.75,9.51,2.74,19.3,4.89,28.71c1.05,4.56,7.38,3.34,7.06-1.21c-0.68-9.58-2.93-19.31-4.7-28.74
			c-0.51-2.74-1.05-5.47-1.61-8.2c7.9,8.61,18.53,15.3,24.02,25.8c-0.12,0.28,3.32,7.1,5.4,4.37c1.93-0.58,9.48-19.18,12.89-26.3
			c2.57-5.36,5.25-10.7,7.82-16.08c2.07,15.69,4.86,31.34,7.22,46.95C260.96,162.08,268.31,160.81,267.59,156.07z"/>
		<path class="st0" d="M411.63,128.03c0.16-0.76,0.1-1.56-0.29-2.3c-1.09-8.45-2.81-16.89-4.22-25.29
			c-1.55-9.25-2.94-18.56-4.84-27.75c-0.91-4.4-7.41-3.27-6.86,1.17c1.15,9.31,2.83,18.57,4.34,27.83c0.8,4.92,1.5,9.89,2.29,14.84
			c-5.62-4.61-11.83-8.67-17.54-12.82c-5.01-3.64-10.03-7.26-15.04-10.88c-4.85-3.5-9.63-7.38-14.76-10.49
			c-1.53-3.67-7.54-2.37-6.95,2c2.59,18.94,6.39,37.87,9.96,56.65c0.83,4.39,7.52,3.24,6.83-1.17c-2.42-15.59-4.74-31.33-7.67-46.87
			c2.59,1.88,5.24,3.7,7.8,5.57c5,3.65,9.99,7.31,14.99,10.95c8.55,6.23,16.7,12.56,24.62,19.51c0.04,0.17,0.07,0.33,0.1,0.5
			c1.01,4.64,7.78,3.46,7.25-1.24C411.65,128.18,411.64,128.11,411.63,128.03z"/>
		<path class="st0" d="M458.2,100.15c-4.1-3.74-9.2-5.6-14.4-7.23c-5.3-1.66-11.43-3.24-14.7-8.15c-3.19-4.79-0.3-9.73,4.45-11.9
			c6.01-2.74,13.01-0.46,19.04,1c4.24,1.03,6.69-5.12,2.34-6.54c-10.23-3.34-22.9-5.45-30.92,3.6c-7.52,8.49-2.54,19.79,6.4,24.79
			c5.32,2.98,11.32,3.99,16.89,6.34c4.36,1.85,9.65,5.48,9.07,10.88c-0.57,5.31-5.85,9.04-10.74,9.93
			c-6.56,1.2-13.22-1.21-19.24-3.53c-4.56-1.75-7.13,5.4-2.56,7.15c10.48,4.02,23.04,7.04,32.75-0.47
			C465.17,119.39,466.38,107.61,458.2,100.15z"/>
		<path class="st0" d="M568.39,104.71c-6.86,0.84-13.67,2.22-20.48,3.4c-4.78,0.83-9.64,1.52-14.43,2.39
			c-0.87-7.06-1.74-14.11-2.61-21.17c10.9-1.03,21.79-3.18,32.04-6.99c3.64-1.35,1.77-7.63-2.03-6.57
			c-10.23,2.85-20.4,5.16-30.91,6.25c-0.94-7.97-1.75-16.02-3.05-23.94c4.54-0.65,9.07-1.56,13.56-2.27
			c6.21-0.98,12.85-1.5,18.87-3.31c3.3-0.99,3.95-6.81-0.28-6.72c-6.37,0.14-12.85,1.61-19.14,2.6c-6.5,1.02-13.21,1.69-19.6,3.21
			c-3.81,0.91-3.6,5.52-0.74,6.78c0.64,8.32,1.86,16.64,2.92,24.93c-1.47,1.42-1.07,4.27,0.7,5.65c0.96,7.79,1.92,15.58,2.87,23.36
			c-2.87,1.94-1.51,7.05,2.59,6.57c6.85-0.79,13.68-2.3,20.47-3.48c6.81-1.19,13.69-2.19,20.43-3.71
			C574.04,110.69,572.93,104.15,568.39,104.71z"/>
		<g>
			<path class="st0" d="M667.93,65.46c-4.82-2.71-10.25-3.3-15.6-4.22c-4.73-0.81-12.16-2.59-12.96-8.42
				c-0.65-4.73,3.78-9,7.86-10.5c6-2.2,12.9-0.88,19.03-0.04c4.53,0.62,4.9-6.07,0.61-6.94c-10.68-2.16-23.18-3.19-30.97,6.03
				c-6.61,7.82-4.77,18.57,4.08,23.72c4.78,2.78,10.21,3.43,15.56,4.33c4.63,0.78,11.12,2.17,12.98,7.2
				c2.04,5.51-3.14,10.46-7.88,12c-6.5,2.11-13.59,0.26-19.97-1.35c-4.73-1.19-7.37,6.01-2.58,7.21c10.92,2.73,24.39,5.32,33.3-3.65
				C679.17,83,677.5,70.84,667.93,65.46z"/>
			<path class="st0" d="M678.09,70.54c-0.42-0.48-1.15,0.13-0.76,0.64c2.55,3.27,3.9,7.32,3.23,11.48
				c-0.59,3.65-2.66,6.04-4.82,8.84c-0.46,0.59,0.36,1.15,0.89,0.81C684.06,87.57,683.23,76.47,678.09,70.54z"/>
		</g>
		<g>
			<path class="st0" d="M507.29,54.66c-14.03,1.73-28.13,3.9-42.05,6.38c-4.66,0.83-3.43,7.84,1.23,7.22
				c5.31-0.71,10.64-1.48,15.96-2.3c0.52,8.47,2.43,17.07,3.99,25.34c1.77,9.38,3.82,18.7,6.08,27.96c1.14,4.67,8.53,3.43,7.38-1.26
				c-2.21-9.04-4.19-18.14-5.95-27.28c-1.64-8.53-2.49-17.4-4.48-25.87c6.36-1.03,12.71-2.12,19.01-3.31
				C512.92,60.72,511.74,54.11,507.29,54.66z"/>
			<path class="st0" d="M502.07,51.41c-5.43,0.26-11.08,1.81-16.4,2.9c-5.43,1.11-10.94,2.06-16.31,3.4
				c-0.19,0.05-0.15,0.33,0.05,0.31c5.73-0.65,11.46-1.71,17.15-2.63c5.2-0.84,10.81-1.36,15.83-2.96
				C503.02,52.23,502.62,51.38,502.07,51.41z"/>
		</g>
		<g>
			<path class="st0" d="M331.73,92.59c-8.37-8.49-21.14-12.31-32.32-9.6c-14.11,2.97-25.67,14.84-27.61,29.37
				c-2.16,16.12,7.47,32.48,22.87,37.88c15.64,5.48,33.46-0.45,41.98-14.83C344.83,121.61,343.09,104.1,331.73,92.59z"/>
			<path class="st1" d="M316.79,145.38c7.29-37.07-13.92-58.3-15-58.19c-1.13-0.13-2.46,0.33-2.89,1.77
				c-9.02,30.39,15.83,60.17,16.85,58.56C316.35,147.09,316.59,146.37,316.79,145.38z"/>
			<path class="st0" d="M340.22,139.83c-3.39,8.22-12.48,13.42-20.77,15.55c-11.19,2.87-21.58,0.39-32.5-2.26
				c-0.86-0.21-1.36,1.05-0.48,1.33c10.91,3.51,24.23,7.08,35.62,4.09c9.39-2.47,16.46-8.95,18.92-18.43
				C341.15,139.59,340.43,139.31,340.22,139.83z"/>
			<path class="st0" d="M336.03,157.62c-2.89,1.01-5.28,3.41-8.14,4.65c-3.12,1.36-6.44,2.26-9.82,2.63
				c-7.2,0.79-13.34-0.71-19.9-3.48c-0.37-0.16-0.6,0.37-0.31,0.6c5.43,4.23,13.36,5.87,20.09,5.35c3.61-0.28,7.18-1.12,10.52-2.54
				c2.91-1.23,7.05-3.08,8.6-5.96C337.48,158.12,336.85,157.33,336.03,157.62z"/>
			<path class="st0" d="M318.64,72.06c-12.67-3.08-27.31,1.37-38.19,7.85c-0.68,0.4-0.19,1.52,0.52,1.13
				c5.68-3.11,11.75-5.37,18.12-6.6c6.44-1.24,12.76-0.98,19.27-1.06C319.06,73.37,319.46,72.26,318.64,72.06z"/>
		</g>
		<g>
			<path class="st0" d="M625.88,100.75c-3.42-4.71-7.97-8.84-12.29-12.71c-3.11-2.79-6.41-5.67-9.92-8.11
				c4.07-2.36,7.75-5.37,10.19-9.41c3.53-5.84,4.45-13.41,0.74-19.38c-7.67-12.36-26.64-12.36-37.64-5.07
				c-1.13,0.75-1.44,1.89-1.23,2.99c-0.02,0.15-0.04,0.3-0.04,0.46c0.08,9.32,1.91,18.88,3.23,28.09
				c1.36,9.48,2.66,19.03,4.57,28.42c0.96,4.71,8.04,3.5,7.35-1.26c-1.35-9.26-3.06-18.47-4.4-27.73
				c-1.26-8.65-1.83-17.65-3.6-26.22c8.04-3.42,19.92-4.33,25.3,3.74c6.69,10.04-6.59,18.73-14.25,21.9
				c-1.82,0.75-2.36,2.35-2.06,3.83c-0.06,1.56,0.82,3.04,2.8,3.1c0.38,0.1,0.79,0.13,1.22,0.09c4.15,3.36,8.55,6.34,12.55,9.9
				c4.25,3.78,7.85,8.08,11.83,12.1C623.58,108.82,628.68,104.6,625.88,100.75z"/>
			<path class="st0" d="M604.14,38.45c-0.5-0.02-0.54,0.67-0.07,0.76c7.47,1.45,12.53,6.08,14.82,13.31
				c0.2,0.62,1.18,0.29,1.07-0.33C618.65,44.9,611.54,38.73,604.14,38.45z"/>
		</g>
		<g>
			<path class="st1" d="M86.61,179.44c-4.86-9.45-9.91-18.81-14.87-28.2c-4.94-9.36-9.52-19.08-15.02-28.13
				c-0.18-0.29-0.38-0.54-0.59-0.76c0.04-0.38,0.08-0.77,0.11-1.15c0.39-4.46-6.11-4.9-6.83-0.6c-1.86,11.16-3.35,22.35-5.51,33.46
				c-2.16,11.1-5.38,21.97-7.54,33.05c-0.78,4.02,5.67,5.32,6.94,1.52c3.57-10.69,5.5-22.21,7.65-33.26
				c1.33-6.84,2.62-13.73,3.66-20.65c3.37,6.59,7.03,13.06,10.45,19.58c4.93,9.41,9.79,18.87,14.82,28.23
				C82.11,186.7,88.8,183.7,86.61,179.44z"/>
			<path class="st1" d="M110.49,176.99c-0.07,0-0.08,0.11-0.01,0.11C110.55,177.11,110.56,176.99,110.49,176.99z"/>
			<g>
				<path class="st1" d="M162.63,170.29c-2.91-17.85-4.8-35.62-6.14-53.6c0.09-0.19,0.19-0.38,0.29-0.56
					c0.67-1.34,0.29-2.6-0.57-3.48c-0.1-1.4-0.2-2.8-0.29-4.2c-0.26-3.93-6.94-3.69-6.94,0.28c0,2.09,0.04,4.18,0.09,6.28
					c-4.47,7.38-8.22,15.37-11.89,23.14c-3.17,6.69-6.18,13.49-8.85,20.41c-4.65-5.87-9.73-11.49-14.3-17.39
					c-5.79-7.47-11.03-15.64-17.24-22.77c-0.1-0.45-0.19-0.91-0.29-1.36c-1.03-4.55-7.67-3.41-7.13,1.22
					c1.2,10.25,3.43,20.47,5.17,30.65c1.75,10.21,3.37,20.45,5.35,30.62c0.88,4.51,7.7,3.34,7.03-1.2
					c-1.51-10.25-3.38-20.45-5.12-30.66c-0.71-4.17-1.35-8.37-2.01-12.58c2.67,3.52,5.43,6.96,8.06,10.38
					c6.07,7.87,12.07,16.44,19.15,23.44c2.92,2.89,7.11,0.08,6.26-3.26c3.4-8.19,6.79-16.37,10.57-24.39
					c1.86-3.96,3.88-7.83,5.93-11.69c0.99,14.11,2.9,28.22,5.54,41.99C156.19,176.26,163.4,175.03,162.63,170.29z"/>
				<path class="st1" d="M167.82,162.88c-4.59-14.1-4.49-29.32-7.28-43.82c-0.1-0.51-0.81-0.36-0.78,0.13
					c0.44,7.89,1.49,15.76,2.45,23.61c0.84,6.88,1.22,14.35,4.22,20.71C166.86,164.43,168.12,163.79,167.82,162.88z"/>
				<path class="st1" d="M105.95,155.29c-0.1-0.54-0.92-0.4-0.84,0.14c1.29,7.87,2.21,15.93,4.09,23.68
					c0.17,0.69,1.17,0.52,1.09-0.19C109.37,171.01,107.46,163.13,105.95,155.29z"/>
			</g>
		</g>
	</g>
</g>
</svg>
